<svg xmlns="http://www.w3.org/2000/svg" width="1179" height="492" viewBox="0 0 1179 492" shape-rendering="geometricPrecision">
  <rect width="100%" height="100%" fill="#ffffff"/>
  <path d="M 272 347 L 273 349 L 276 349 Z
M 257 323 L 256 328 L 267 335 L 269 335 L 272 337 L 259 323 Z
M 1010 310 L 1010 328 L 1015 332 L 1018 332 L 1024 329 L 1025 331 L 1027 331 L 1027 310 L 1024 310 L 1024 325 L 1020 329 L 1015 329 L 1013 327 L 1013 310 Z
M 943 310 L 943 331 L 946 331 L 946 310 Z
M 927 310 L 923 310 L 921 319 L 917 327 L 914 321 L 911 311 L 910 310 L 907 310 L 910 316 L 913 327 L 916 332 L 913 338 L 913 340 L 916 340 L 919 330 L 921 327 L 924 316 Z
M 883 310 L 883 331 L 885 331 L 886 330 L 886 311 Z
M 823 310 L 823 327 L 824 329 L 828 332 L 831 332 L 836 329 L 837 331 L 840 331 L 840 310 L 837 310 L 837 325 L 833 329 L 828 329 L 826 326 L 826 311 Z
M 1166 309 L 1161 311 L 1159 313 L 1157 322 L 1159 328 L 1162 331 L 1169 332 L 1174 330 L 1176 328 L 1178 322 L 1178 318 L 1177 317 L 1177 314 L 1173 310 Z
M 1165 312 L 1171 312 L 1174 315 L 1175 322 L 1173 327 L 1171 329 L 1165 329 L 1163 328 L 1161 325 L 1161 322 L 1160 321 L 1162 314 Z
M 1109 309 L 1104 311 L 1102 313 L 1100 321 L 1101 322 L 1101 326 L 1105 331 L 1112 332 L 1117 330 L 1119 328 L 1121 323 L 1121 317 L 1120 314 L 1116 310 Z
M 1108 312 L 1114 312 L 1117 315 L 1118 322 L 1116 327 L 1114 329 L 1107 329 L 1104 325 L 1104 316 L 1105 314 Z
M 1063 310 L 1063 331 L 1066 331 L 1066 316 L 1070 312 L 1074 312 L 1077 315 L 1077 331 L 1080 331 L 1080 316 L 1084 312 L 1088 312 L 1091 316 L 1091 331 L 1094 331 L 1094 315 L 1091 310 L 1086 309 L 1080 313 L 1075 309 L 1072 309 L 1067 312 L 1066 310 Z
M 1047 310 L 1043 309 L 1039 312 L 1038 310 L 1035 310 L 1035 331 L 1038 331 L 1038 317 L 1041 313 L 1047 312 Z
M 991 309 L 988 310 L 984 314 L 983 316 L 983 325 L 986 330 L 991 332 L 995 332 L 1002 327 L 1003 317 L 1001 312 L 995 309 Z
M 990 312 L 996 312 L 999 315 L 1000 323 L 999 326 L 996 329 L 990 329 L 988 328 L 986 325 L 986 316 Z
M 958 309 L 953 313 L 953 317 L 954 319 L 957 321 L 961 322 L 964 326 L 962 329 L 958 330 L 953 328 L 953 330 L 957 332 L 961 332 L 965 330 L 967 325 L 965 321 L 959 319 L 956 316 L 956 313 L 957 312 L 961 311 L 965 313 L 965 310 Z
M 848 311 L 848 313 L 856 311 L 860 314 L 861 317 L 860 319 L 850 320 L 847 323 L 847 328 L 848 330 L 852 332 L 855 332 L 860 329 L 861 331 L 863 331 L 863 313 L 862 311 L 858 309 L 853 309 Z
M 850 327 L 850 324 L 853 321 L 860 321 L 861 322 L 860 327 L 855 330 Z
M 1144 304 L 1144 309 L 1143 310 L 1140 310 L 1140 312 L 1143 312 L 1144 313 L 1144 328 L 1145 330 L 1148 332 L 1151 332 L 1153 331 L 1153 329 L 1149 329 L 1147 327 L 1147 313 L 1148 312 L 1153 312 L 1153 310 L 1148 310 L 1147 309 L 1147 304 Z
M 1129 304 L 1128 305 L 1128 309 L 1125 310 L 1125 312 L 1128 313 L 1128 325 L 1129 326 L 1129 329 L 1131 331 L 1135 332 L 1137 331 L 1138 329 L 1133 329 L 1131 325 L 1131 313 L 1132 312 L 1137 312 L 1138 310 L 1133 310 L 1131 308 L 1131 304 Z
M 895 304 L 895 309 L 894 310 L 891 310 L 891 312 L 894 312 L 895 313 L 895 329 L 899 332 L 902 332 L 904 331 L 904 329 L 900 329 L 898 327 L 898 313 L 899 312 L 904 312 L 904 310 L 899 310 L 898 309 L 898 304 Z
M 943 301 L 943 304 L 944 305 L 946 304 L 946 301 Z
M 882 302 L 883 304 L 886 304 L 886 301 L 883 301 Z
M 794 303 L 789 311 L 789 322 L 791 327 L 794 330 L 799 332 L 804 332 L 809 330 L 812 333 L 819 336 L 819 333 L 812 329 L 812 327 L 815 322 L 815 311 L 813 306 L 810 303 L 805 301 L 799 301 Z
M 798 304 L 806 304 L 810 307 L 812 312 L 812 321 L 810 325 L 805 329 L 799 329 L 793 324 L 792 312 L 793 309 Z
M 872 299 L 872 331 L 874 331 L 874 299 Z
M 252 294 L 251 296 L 253 302 L 258 306 L 266 310 L 268 310 L 263 303 Z
M 217 283 L 217 286 L 231 301 L 238 307 L 240 311 L 243 312 L 247 316 L 248 315 L 243 308 L 238 305 L 237 302 Z
M 73 275 L 72 275 L 72 278 L 70 281 L 70 283 L 63 296 L 57 316 L 57 323 L 56 324 L 56 331 L 55 332 L 56 349 L 58 349 L 57 347 L 57 336 L 61 325 L 66 317 L 67 312 L 69 310 L 70 304 L 72 300 L 72 296 L 73 295 Z
M 167 245 L 172 254 L 189 275 L 205 290 L 208 291 L 199 281 L 198 278 L 176 254 L 173 249 Z
M 114 271 L 113 274 L 111 306 L 111 301 L 115 290 L 118 270 L 120 268 L 121 269 L 121 276 L 120 277 L 120 284 L 119 285 L 119 291 L 118 292 L 118 298 L 117 299 L 117 305 L 116 306 L 116 313 L 115 314 L 115 319 L 111 333 L 110 347 L 109 349 L 247 349 L 234 333 L 232 332 L 227 324 L 216 312 L 203 295 L 195 288 L 192 283 L 172 261 L 159 241 L 156 241 L 148 247 L 146 247 L 135 254 L 124 259 L 126 259 L 142 251 L 144 251 L 157 245 L 160 246 L 159 248 L 145 255 L 143 257 L 141 257 L 126 265 L 124 265 L 116 269 Z
M 690 224 L 689 229 L 685 237 L 679 255 L 702 255 L 696 237 L 694 234 L 691 224 Z
M 536 223 L 532 235 L 524 253 L 524 255 L 547 255 Z
M 393 223 L 392 228 L 390 231 L 390 233 L 388 236 L 387 241 L 381 255 L 404 255 L 400 241 L 398 238 Z
M 110 217 L 107 219 L 105 223 L 105 227 L 104 228 L 104 233 L 106 234 L 108 231 L 108 227 L 110 222 Z
M 1003 215 L 1003 255 L 1008 255 L 1008 215 Z
M 951 215 L 951 255 L 955 255 L 955 239 L 956 238 L 958 238 L 962 242 L 972 255 L 978 255 L 964 238 L 970 235 L 974 231 L 975 225 L 973 220 L 969 216 L 966 215 Z
M 955 219 L 956 218 L 961 218 L 967 220 L 970 224 L 970 229 L 969 231 L 963 234 L 956 234 L 955 233 Z
M 898 215 L 898 255 L 912 255 L 920 252 L 923 248 L 923 240 L 920 236 L 915 233 L 919 228 L 919 222 L 915 217 L 910 215 Z
M 903 237 L 904 236 L 911 236 L 916 238 L 919 242 L 918 247 L 913 251 L 904 251 L 903 250 Z
M 904 218 L 911 219 L 915 224 L 915 228 L 909 233 L 904 233 L 903 232 L 903 219 Z
M 812 215 L 791 215 L 791 255 L 796 255 L 796 236 L 797 235 L 812 235 L 812 231 L 797 231 L 796 230 L 796 219 L 797 218 L 812 218 Z
M 1105 214 L 1098 219 L 1097 221 L 1097 227 L 1098 229 L 1103 233 L 1114 237 L 1117 240 L 1118 244 L 1117 247 L 1111 252 L 1106 252 L 1104 251 L 1100 247 L 1099 244 L 1098 245 L 1095 245 L 1095 247 L 1097 251 L 1102 255 L 1111 256 L 1120 251 L 1122 247 L 1122 240 L 1120 236 L 1111 231 L 1106 230 L 1101 225 L 1102 221 L 1106 218 L 1113 218 L 1117 221 L 1121 219 L 1114 214 Z
M 1050 215 L 1044 218 L 1038 224 L 1035 231 L 1035 239 L 1038 246 L 1043 251 L 1048 254 L 1054 256 L 1063 256 L 1069 254 L 1070 253 L 1070 248 L 1063 252 L 1054 252 L 1046 248 L 1041 242 L 1040 239 L 1040 230 L 1042 226 L 1048 220 L 1052 218 L 1060 217 L 1067 219 L 1070 221 L 1070 216 L 1068 215 L 1065 215 L 1064 214 L 1054 214 L 1053 215 Z
M 853 214 L 852 214 L 845 229 L 843 231 L 843 233 L 840 239 L 838 241 L 831 255 L 836 255 L 842 245 L 863 245 L 868 255 L 873 255 Z
M 852 224 L 854 225 L 856 229 L 856 231 L 861 240 L 860 241 L 845 241 L 844 240 Z
M 1049 198 L 1048 199 L 1041 200 L 1035 203 L 1024 213 L 1020 221 L 1018 228 L 1018 240 L 1023 253 L 1032 263 L 1044 269 L 1058 270 L 1071 266 L 1080 259 L 1084 254 L 1088 246 L 1090 232 L 1089 231 L 1088 222 L 1084 214 L 1079 208 L 1071 202 L 1069 202 L 1066 200 L 1059 199 L 1058 198 Z
M 1050 202 L 1062 203 L 1071 207 L 1081 217 L 1085 227 L 1085 241 L 1084 242 L 1084 245 L 1080 252 L 1071 261 L 1065 264 L 1058 265 L 1057 266 L 1046 265 L 1040 263 L 1034 259 L 1026 250 L 1022 239 L 1022 229 L 1024 222 L 1028 215 L 1038 206 Z
M 230 183 L 222 189 L 204 198 L 200 202 L 193 206 L 191 209 L 198 205 L 201 202 L 203 202 L 212 195 L 229 186 Z
M 102 179 L 101 185 L 98 192 L 98 195 L 96 198 L 96 201 L 93 208 L 93 211 L 91 214 L 91 217 L 88 226 L 89 228 L 94 214 L 96 204 L 99 197 Z
M 262 160 L 248 170 L 245 173 L 245 175 L 248 174 L 249 172 Z
M 231 160 L 229 160 L 219 169 L 213 172 L 212 174 L 216 175 L 220 173 L 227 167 Z
M 201 226 L 203 228 L 203 230 L 209 236 L 216 241 L 218 239 L 220 242 L 222 243 L 222 246 L 253 270 L 254 272 L 259 276 L 264 283 L 267 289 L 268 295 L 296 315 L 310 327 L 317 331 L 320 334 L 323 335 L 288 305 L 281 295 L 282 294 L 285 295 L 313 320 L 318 322 L 320 324 L 319 325 L 329 334 L 332 335 L 334 338 L 348 349 L 755 349 L 756 350 L 757 349 L 757 136 L 346 136 L 335 145 L 325 150 L 319 159 L 313 164 L 301 170 L 299 170 L 291 175 L 279 179 L 251 199 L 247 204 L 243 204 L 237 208 L 228 212 L 226 215 L 222 215 L 211 221 L 205 223 Z
M 603 203 L 614 203 L 616 205 L 635 236 L 650 211 L 656 203 L 667 203 L 668 204 L 641 245 L 641 278 L 640 279 L 630 279 L 629 278 L 629 245 L 602 204 Z
M 581 203 L 591 203 L 592 204 L 592 278 L 591 279 L 581 279 L 580 278 L 580 204 Z
M 436 203 L 440 203 L 481 254 L 481 204 L 482 203 L 492 203 L 493 204 L 493 279 L 492 280 L 489 280 L 447 226 L 447 278 L 446 279 L 436 279 L 435 278 L 435 204 Z
M 690 202 L 693 202 L 694 203 L 694 205 L 699 215 L 699 217 L 708 237 L 712 249 L 715 254 L 721 271 L 724 276 L 723 279 L 712 279 L 710 277 L 708 269 L 705 263 L 676 263 L 674 265 L 673 270 L 669 279 L 657 279 L 656 278 L 662 265 L 662 263 L 666 256 L 666 254 L 670 247 L 670 245 L 674 238 L 677 229 L 681 222 L 681 220 L 685 213 L 685 211 Z
M 535 202 L 538 202 L 540 205 L 540 207 L 545 217 L 549 229 L 552 234 L 556 246 L 559 251 L 565 268 L 570 278 L 569 279 L 557 279 L 553 271 L 551 263 L 521 263 L 514 279 L 502 279 L 501 278 Z
M 427 278 L 426 279 L 414 279 L 408 263 L 378 263 L 374 274 L 371 279 L 346 279 L 343 276 L 342 273 L 339 270 L 323 245 L 322 245 L 312 258 L 312 278 L 311 279 L 300 279 L 299 278 L 299 204 L 300 203 L 311 203 L 312 204 L 312 243 L 342 203 L 354 203 L 355 204 L 331 235 L 331 237 L 344 257 L 347 260 L 356 275 L 359 277 L 365 264 L 365 262 L 369 255 L 369 253 L 373 246 L 373 244 L 377 237 L 377 235 L 381 228 L 384 219 L 388 212 L 388 210 L 391 204 L 393 202 L 395 202 L 397 204 L 399 211 L 402 216 L 410 238 L 413 243 L 413 245 Z
M 321 136 L 309 136 L 286 147 L 276 157 L 273 161 L 272 165 L 274 163 L 304 149 L 312 144 Z
M 129 215 L 148 196 L 181 170 L 187 168 L 192 164 L 202 159 L 207 158 L 210 156 L 220 154 L 223 150 L 238 136 L 143 136 L 142 137 L 142 143 L 141 144 L 140 158 L 138 164 L 137 175 L 136 176 L 135 186 L 133 192 L 132 204 L 130 208 Z
M 102 136 L 99 136 L 97 142 L 93 165 L 89 179 L 94 167 L 95 160 L 99 151 L 99 148 L 102 140 Z
M 95 136 L 1 136 L 0 137 L 0 349 L 3 349 L 4 350 L 5 349 L 35 349 L 36 341 L 41 331 L 41 327 L 42 326 L 42 311 L 41 308 L 43 305 L 47 290 L 50 285 L 53 275 L 55 273 L 55 270 L 57 266 L 57 262 L 59 259 L 63 242 L 65 240 L 65 235 L 67 231 L 67 228 L 70 222 L 70 218 L 73 210 L 73 206 L 78 195 L 80 185 L 84 175 L 85 168 L 92 147 L 93 138 Z" fill="#353334" fill-rule="evenodd"/>
  <path d="M 1090 193 L 1084 191 L 1083 192 L 1080 192 L 1076 197 L 1076 202 L 1078 205 L 1077 206 L 1078 207 L 1079 206 L 1083 208 L 1088 207 L 1092 203 L 1092 196 Z
M 391 39 L 388 41 L 385 47 L 382 51 L 380 52 L 380 56 L 381 57 L 387 52 L 390 47 L 392 41 Z
M 381 39 L 376 42 L 375 47 L 372 49 L 370 49 L 349 71 L 346 71 L 344 69 L 343 65 L 345 61 L 349 58 L 359 47 L 362 41 L 362 37 L 361 35 L 359 35 L 355 40 L 351 40 L 321 69 L 293 89 L 287 96 L 285 96 L 265 111 L 262 112 L 255 119 L 246 125 L 243 133 L 230 144 L 220 155 L 210 157 L 207 159 L 202 160 L 192 165 L 187 169 L 181 171 L 148 197 L 129 216 L 128 213 L 129 212 L 129 208 L 131 204 L 131 199 L 132 198 L 132 195 L 131 194 L 133 191 L 134 181 L 135 180 L 136 170 L 137 169 L 137 164 L 139 158 L 139 151 L 140 150 L 140 144 L 141 143 L 141 137 L 142 136 L 141 135 L 143 128 L 143 125 L 142 124 L 143 112 L 144 111 L 144 106 L 146 100 L 147 85 L 148 84 L 150 72 L 148 69 L 144 72 L 144 76 L 142 78 L 140 88 L 137 92 L 135 91 L 135 85 L 138 79 L 138 75 L 141 68 L 141 65 L 143 62 L 141 56 L 137 58 L 123 75 L 116 99 L 114 101 L 114 106 L 111 112 L 111 116 L 109 123 L 107 125 L 105 125 L 103 123 L 103 118 L 109 107 L 109 104 L 115 91 L 116 85 L 112 96 L 109 101 L 109 103 L 104 112 L 102 121 L 99 125 L 99 129 L 97 132 L 97 135 L 94 138 L 94 143 L 91 151 L 90 158 L 88 161 L 88 164 L 81 185 L 79 195 L 74 206 L 74 210 L 72 214 L 71 222 L 68 228 L 68 231 L 66 235 L 66 240 L 64 242 L 63 249 L 60 256 L 60 259 L 58 262 L 58 266 L 56 270 L 56 273 L 54 275 L 53 280 L 48 290 L 44 305 L 42 308 L 43 311 L 43 326 L 42 327 L 42 331 L 38 338 L 37 345 L 35 350 L 36 351 L 36 365 L 40 372 L 41 378 L 44 381 L 48 388 L 51 388 L 51 382 L 61 375 L 62 376 L 58 389 L 58 403 L 60 408 L 66 393 L 70 390 L 73 392 L 73 395 L 71 399 L 71 409 L 72 410 L 72 417 L 73 418 L 73 426 L 72 427 L 72 433 L 71 434 L 71 444 L 72 445 L 72 448 L 74 450 L 73 429 L 74 428 L 74 425 L 76 423 L 78 425 L 78 428 L 79 429 L 80 444 L 81 447 L 83 447 L 83 424 L 82 423 L 82 409 L 81 408 L 81 392 L 85 387 L 88 387 L 90 390 L 90 399 L 91 400 L 91 407 L 92 408 L 93 425 L 97 430 L 99 430 L 103 424 L 103 404 L 104 403 L 104 385 L 105 384 L 106 359 L 107 358 L 107 352 L 109 350 L 108 349 L 109 347 L 109 339 L 110 338 L 111 328 L 114 319 L 115 306 L 116 305 L 116 299 L 117 298 L 117 292 L 118 291 L 118 285 L 119 284 L 119 277 L 120 276 L 120 271 L 119 270 L 120 269 L 118 275 L 116 290 L 112 301 L 112 306 L 111 307 L 110 306 L 110 299 L 111 298 L 111 286 L 112 285 L 112 274 L 113 271 L 116 268 L 124 264 L 126 264 L 141 256 L 143 256 L 145 254 L 159 247 L 159 246 L 157 246 L 154 248 L 149 249 L 126 260 L 123 259 L 125 257 L 135 253 L 140 249 L 146 246 L 148 246 L 156 240 L 159 240 L 161 242 L 162 245 L 164 246 L 173 261 L 193 283 L 196 288 L 204 295 L 208 301 L 214 307 L 217 312 L 228 324 L 233 332 L 235 333 L 248 348 L 247 350 L 249 350 L 258 359 L 264 369 L 290 390 L 294 395 L 297 397 L 300 402 L 309 405 L 311 407 L 318 410 L 323 409 L 325 412 L 327 413 L 336 413 L 337 411 L 328 403 L 325 403 L 323 401 L 324 400 L 324 397 L 321 394 L 307 387 L 284 369 L 285 366 L 288 365 L 289 366 L 296 366 L 299 369 L 300 373 L 302 374 L 304 378 L 310 383 L 326 390 L 329 393 L 339 399 L 345 406 L 352 410 L 359 411 L 359 408 L 360 407 L 387 406 L 393 411 L 399 413 L 400 411 L 370 393 L 365 388 L 366 385 L 369 385 L 375 389 L 387 393 L 399 393 L 401 391 L 401 389 L 398 386 L 394 384 L 386 377 L 383 376 L 364 361 L 358 358 L 350 352 L 349 350 L 342 346 L 334 339 L 332 336 L 329 335 L 318 325 L 319 324 L 313 321 L 285 296 L 282 295 L 289 305 L 324 335 L 323 336 L 320 335 L 317 332 L 310 328 L 296 316 L 270 298 L 267 295 L 266 289 L 258 276 L 255 274 L 253 271 L 224 249 L 221 246 L 221 243 L 220 243 L 219 241 L 216 242 L 209 237 L 202 230 L 202 228 L 200 226 L 209 220 L 211 220 L 222 214 L 225 214 L 228 211 L 237 207 L 243 203 L 247 203 L 251 198 L 279 178 L 291 174 L 293 172 L 313 163 L 318 159 L 322 152 L 325 149 L 332 146 L 345 136 L 364 114 L 364 110 L 361 106 L 356 107 L 347 115 L 342 114 L 335 123 L 330 127 L 327 132 L 323 132 L 324 135 L 309 147 L 274 164 L 272 166 L 271 165 L 271 163 L 275 157 L 286 146 L 304 137 L 306 137 L 314 132 L 317 132 L 316 130 L 324 124 L 327 123 L 351 95 L 359 91 L 361 91 L 366 86 L 367 81 L 366 81 L 363 85 L 359 87 L 354 87 L 349 82 L 349 77 L 354 73 L 357 72 L 359 69 L 362 69 L 367 65 L 371 54 L 374 49 L 378 47 L 381 42 Z
M 60 357 L 61 358 L 61 364 L 64 366 L 64 368 L 61 372 L 56 374 L 55 376 L 52 378 L 51 377 L 51 374 L 49 372 L 48 367 L 54 362 L 54 358 L 55 357 Z
M 271 347 L 272 346 L 277 349 L 279 349 L 287 354 L 294 360 L 295 365 L 294 366 L 290 366 L 289 365 L 284 366 L 281 365 L 276 359 L 273 353 L 274 350 L 273 350 Z
M 256 323 L 259 322 L 273 337 L 272 338 L 269 336 L 267 336 L 255 328 Z
M 109 309 L 110 308 L 111 310 L 110 311 Z
M 251 294 L 253 293 L 260 299 L 269 310 L 266 311 L 255 305 L 251 300 L 251 297 L 250 296 Z
M 217 282 L 238 302 L 238 304 L 244 308 L 249 315 L 247 317 L 243 313 L 240 312 L 237 307 L 231 302 L 216 286 L 216 283 Z
M 73 274 L 74 275 L 74 295 L 73 296 L 73 300 L 71 304 L 70 310 L 68 312 L 67 317 L 62 325 L 58 336 L 58 347 L 59 348 L 58 350 L 60 354 L 58 356 L 56 356 L 55 355 L 55 340 L 54 339 L 56 316 L 64 291 L 69 283 L 69 281 L 71 278 L 71 275 Z
M 167 244 L 174 249 L 183 261 L 186 263 L 192 271 L 199 278 L 200 281 L 209 291 L 208 292 L 205 291 L 188 275 L 171 254 L 166 246 Z
M 110 216 L 111 217 L 111 222 L 109 227 L 109 231 L 107 234 L 105 235 L 103 233 L 104 223 L 106 219 Z
M 231 183 L 231 185 L 229 187 L 212 196 L 192 210 L 190 209 L 193 205 L 200 201 L 204 197 L 222 188 L 230 182 Z
M 102 178 L 103 179 L 103 183 L 102 184 L 100 197 L 97 204 L 97 207 L 95 211 L 95 214 L 92 221 L 91 227 L 89 229 L 87 226 L 88 225 L 90 214 L 92 211 L 95 198 L 97 195 L 97 192 Z
M 88 178 L 89 177 L 90 179 L 89 180 Z
M 262 161 L 250 172 L 248 175 L 246 176 L 244 175 L 244 173 L 253 165 L 260 160 Z
M 261 160 L 262 159 L 263 160 L 262 161 Z
M 232 160 L 228 167 L 220 174 L 216 176 L 214 176 L 211 174 L 213 171 L 219 168 L 229 159 Z
M 104 126 L 105 127 L 105 134 L 103 136 L 103 140 L 100 148 L 100 151 L 96 160 L 95 167 L 90 178 L 89 177 L 89 174 L 92 165 L 96 142 L 101 127 Z" fill="#cf9d57" fill-rule="evenodd"/>
</svg>